<svg width="950" height="450" viewBox="0 0 950 450" fill="none" xmlns="http://www.w3.org/2000/svg">
<g id="assets">
<g id="icon-opaque">
<rect id="Background" x="251" y="251" width="198" height="198" fill="white" stroke="#607D8B" stroke-width="2"/>
<path id="Text" d="M326.272 338H322.786V323.891H306.995V338H303.509V308.018H306.995V320.773H322.786V308.018H326.272V338ZM343.499 338.41C340.177 338.41 337.552 337.398 335.624 335.375C333.71 333.352 332.753 330.542 332.753 326.946C332.753 323.323 333.642 320.445 335.419 318.312C337.21 316.18 339.609 315.113 342.617 315.113C345.434 315.113 347.662 316.043 349.303 317.902C350.943 319.748 351.764 322.188 351.764 325.224V327.377H336.28C336.349 330.016 337.012 332.019 338.27 333.386C339.541 334.753 341.325 335.437 343.622 335.437C346.042 335.437 348.435 334.931 350.8 333.919V336.954C349.597 337.474 348.455 337.843 347.375 338.062C346.309 338.294 345.017 338.41 343.499 338.41ZM342.576 317.964C340.771 317.964 339.329 318.552 338.249 319.728C337.183 320.903 336.554 322.53 336.362 324.608H348.113C348.113 322.462 347.635 320.821 346.678 319.687C345.721 318.538 344.354 317.964 342.576 317.964ZM360.992 338H357.588V306.09H360.992V338ZM371.615 338H368.211V306.09H371.615V338ZM398.234 326.741C398.234 330.405 397.312 333.27 395.466 335.334C393.62 337.385 391.07 338.41 387.816 338.41C385.807 338.41 384.022 337.938 382.464 336.995C380.905 336.052 379.702 334.698 378.854 332.935C378.007 331.171 377.583 329.106 377.583 326.741C377.583 323.077 378.499 320.227 380.331 318.189C382.163 316.139 384.706 315.113 387.96 315.113C391.104 315.113 393.6 316.159 395.445 318.251C397.305 320.343 398.234 323.173 398.234 326.741ZM381.11 326.741C381.11 329.612 381.685 331.8 382.833 333.304C383.981 334.808 385.67 335.56 387.898 335.56C390.127 335.56 391.815 334.814 392.964 333.324C394.126 331.82 394.707 329.626 394.707 326.741C394.707 323.884 394.126 321.717 392.964 320.24C391.815 318.75 390.113 318.005 387.857 318.005C385.629 318.005 383.947 318.736 382.812 320.199C381.678 321.662 381.11 323.843 381.11 326.741ZM321.392 395H317.946L311.896 374.923C311.609 374.034 311.288 372.913 310.933 371.56C310.577 370.206 310.393 369.393 310.379 369.119C310.078 370.924 309.6 372.899 308.943 375.046L303.078 395H299.633L291.655 365.018H295.347L300.084 383.536C300.74 386.134 301.219 388.485 301.52 390.591C301.889 388.089 302.436 385.642 303.16 383.249L308.533 365.018H312.225L317.864 383.413C318.521 385.532 319.074 387.925 319.525 390.591C319.785 388.649 320.277 386.284 321.002 383.495L325.719 365.018H329.41L321.392 395ZM352.994 383.741C352.994 387.405 352.071 390.27 350.226 392.334C348.38 394.385 345.83 395.41 342.576 395.41C340.566 395.41 338.782 394.938 337.224 393.995C335.665 393.052 334.462 391.698 333.614 389.935C332.767 388.171 332.343 386.106 332.343 383.741C332.343 380.077 333.259 377.227 335.091 375.189C336.923 373.139 339.466 372.113 342.72 372.113C345.864 372.113 348.359 373.159 350.205 375.251C352.064 377.343 352.994 380.173 352.994 383.741ZM335.87 383.741C335.87 386.612 336.444 388.8 337.593 390.304C338.741 391.808 340.43 392.56 342.658 392.56C344.887 392.56 346.575 391.814 347.724 390.324C348.886 388.82 349.467 386.626 349.467 383.741C349.467 380.884 348.886 378.717 347.724 377.24C346.575 375.75 344.873 375.005 342.617 375.005C340.389 375.005 338.707 375.736 337.572 377.199C336.438 378.662 335.87 380.843 335.87 383.741ZM369.236 372.113C370.234 372.113 371.13 372.195 371.923 372.359L371.451 375.518C370.521 375.312 369.701 375.21 368.99 375.21C367.172 375.21 365.613 375.948 364.314 377.425C363.029 378.901 362.387 380.74 362.387 382.941V395H358.982V372.523H361.792L362.182 376.687H362.346C363.18 375.224 364.185 374.096 365.36 373.303C366.536 372.51 367.828 372.113 369.236 372.113ZM379.531 395H376.127V363.09H379.531V395ZM402.049 391.985H401.864C400.292 394.269 397.94 395.41 394.81 395.41C391.87 395.41 389.58 394.405 387.939 392.396C386.312 390.386 385.499 387.528 385.499 383.823C385.499 380.118 386.319 377.24 387.96 375.189C389.601 373.139 391.884 372.113 394.81 372.113C397.858 372.113 400.196 373.221 401.823 375.436H402.09L401.946 373.815L401.864 372.236V363.09H405.269V395H402.5L402.049 391.985ZM395.24 392.56C397.564 392.56 399.246 391.931 400.285 390.673C401.338 389.401 401.864 387.357 401.864 384.541V383.823C401.864 380.638 401.331 378.368 400.265 377.015C399.212 375.647 397.523 374.964 395.199 374.964C393.203 374.964 391.672 375.743 390.605 377.302C389.553 378.847 389.026 381.034 389.026 383.864C389.026 386.735 389.553 388.902 390.605 390.365C391.658 391.828 393.203 392.56 395.24 392.56Z" fill="#607D8B"/>
</g>
<g id="icon">
<rect id="Background_2" x="1" y="251" width="198" height="198" stroke="#607D8B" stroke-width="2"/>
<path id="Text_2" d="M76.2725 338H72.7861V323.891H56.9951V338H53.5088V308.018H56.9951V320.773H72.7861V308.018H76.2725V338ZM93.499 338.41C90.1768 338.41 87.5518 337.398 85.624 335.375C83.71 333.352 82.7529 330.542 82.7529 326.946C82.7529 323.323 83.6416 320.445 85.4189 318.312C87.21 316.18 89.6094 315.113 92.6172 315.113C95.4336 315.113 97.6621 316.043 99.3027 317.902C100.943 319.748 101.764 322.188 101.764 325.224V327.377H86.2803C86.3486 330.016 87.0117 332.019 88.2695 333.386C89.541 334.753 91.3252 335.437 93.6221 335.437C96.042 335.437 98.4346 334.931 100.8 333.919V336.954C99.5967 337.474 98.4551 337.843 97.375 338.062C96.3086 338.294 95.0166 338.41 93.499 338.41ZM92.5762 317.964C90.7715 317.964 89.3291 318.552 88.249 319.728C87.1826 320.903 86.5537 322.53 86.3623 324.608H98.1133C98.1133 322.462 97.6348 320.821 96.6777 319.687C95.7207 318.538 94.3535 317.964 92.5762 317.964ZM110.992 338H107.588V306.09H110.992V338ZM121.615 338H118.211V306.09H121.615V338ZM148.234 326.741C148.234 330.405 147.312 333.27 145.466 335.334C143.62 337.385 141.07 338.41 137.816 338.41C135.807 338.41 134.022 337.938 132.464 336.995C130.905 336.052 129.702 334.698 128.854 332.935C128.007 331.171 127.583 329.106 127.583 326.741C127.583 323.077 128.499 320.227 130.331 318.189C132.163 316.139 134.706 315.113 137.96 315.113C141.104 315.113 143.6 316.159 145.445 318.251C147.305 320.343 148.234 323.173 148.234 326.741ZM131.11 326.741C131.11 329.612 131.685 331.8 132.833 333.304C133.981 334.808 135.67 335.56 137.898 335.56C140.127 335.56 141.815 334.814 142.964 333.324C144.126 331.82 144.707 329.626 144.707 326.741C144.707 323.884 144.126 321.717 142.964 320.24C141.815 318.75 140.113 318.005 137.857 318.005C135.629 318.005 133.947 318.736 132.812 320.199C131.678 321.662 131.11 323.843 131.11 326.741ZM71.3916 395H67.9463L61.8965 374.923C61.6094 374.034 61.2881 372.913 60.9326 371.56C60.5771 370.206 60.3926 369.393 60.3789 369.119C60.0781 370.924 59.5996 372.899 58.9434 375.046L53.0781 395H49.6328L41.6553 365.018H45.3467L50.084 383.536C50.7402 386.134 51.2188 388.485 51.5195 390.591C51.8887 388.089 52.4355 385.642 53.1602 383.249L58.5332 365.018H62.2246L67.8643 383.413C68.5205 385.532 69.0742 387.925 69.5254 390.591C69.7852 388.649 70.2773 386.284 71.002 383.495L75.7188 365.018H79.4102L71.3916 395ZM102.994 383.741C102.994 387.405 102.071 390.27 100.226 392.334C98.3799 394.385 95.8301 395.41 92.5762 395.41C90.5664 395.41 88.7822 394.938 87.2236 393.995C85.665 393.052 84.4619 391.698 83.6143 389.935C82.7666 388.171 82.3428 386.106 82.3428 383.741C82.3428 380.077 83.2588 377.227 85.0908 375.189C86.9229 373.139 89.4658 372.113 92.7197 372.113C95.8643 372.113 98.3594 373.159 100.205 375.251C102.064 377.343 102.994 380.173 102.994 383.741ZM85.8701 383.741C85.8701 386.612 86.4443 388.8 87.5928 390.304C88.7412 391.808 90.4297 392.56 92.6582 392.56C94.8867 392.56 96.5752 391.814 97.7236 390.324C98.8857 388.82 99.4668 386.626 99.4668 383.741C99.4668 380.884 98.8857 378.717 97.7236 377.24C96.5752 375.75 94.873 375.005 92.6172 375.005C90.3887 375.005 88.707 375.736 87.5723 377.199C86.4375 378.662 85.8701 380.843 85.8701 383.741ZM119.236 372.113C120.234 372.113 121.13 372.195 121.923 372.359L121.451 375.518C120.521 375.312 119.701 375.21 118.99 375.21C117.172 375.21 115.613 375.948 114.314 377.425C113.029 378.901 112.387 380.74 112.387 382.941V395H108.982V372.523H111.792L112.182 376.687H112.346C113.18 375.224 114.185 374.096 115.36 373.303C116.536 372.51 117.828 372.113 119.236 372.113ZM129.531 395H126.127V363.09H129.531V395ZM152.049 391.985H151.864C150.292 394.269 147.94 395.41 144.81 395.41C141.87 395.41 139.58 394.405 137.939 392.396C136.312 390.386 135.499 387.528 135.499 383.823C135.499 380.118 136.319 377.24 137.96 375.189C139.601 373.139 141.884 372.113 144.81 372.113C147.858 372.113 150.196 373.221 151.823 375.436H152.09L151.946 373.815L151.864 372.236V363.09H155.269V395H152.5L152.049 391.985ZM145.24 392.56C147.564 392.56 149.246 391.931 150.285 390.673C151.338 389.401 151.864 387.357 151.864 384.541V383.823C151.864 380.638 151.331 378.368 150.265 377.015C149.212 375.647 147.523 374.964 145.199 374.964C143.203 374.964 141.672 375.743 140.605 377.302C139.553 378.847 139.026 381.034 139.026 383.864C139.026 386.735 139.553 388.902 140.605 390.365C141.658 391.828 143.203 392.56 145.24 392.56Z" fill="#607D8B"/>
</g>
<g id="logo-dark">
<rect width="200" height="200" transform="translate(750)" fill="white" fill-opacity="0.6"/>
<rect id="Background_3" x="751" y="1" width="198" height="198" stroke="black" stroke-width="2"/>
<path id="Text_3" d="M822.883 86H818.898V69.875H800.852V86H796.867V51.7344H800.852V66.3125H818.898V51.7344H822.883V86ZM842.57 86.4688C838.773 86.4688 835.773 85.3125 833.57 83C831.383 80.6875 830.289 77.4766 830.289 73.3672C830.289 69.2266 831.305 65.9375 833.336 63.5C835.383 61.0625 838.125 59.8438 841.562 59.8438C844.781 59.8438 847.328 60.9062 849.203 63.0312C851.078 65.1406 852.016 67.9297 852.016 71.3984V73.8594H834.32C834.398 76.875 835.156 79.1641 836.594 80.7266C838.047 82.2891 840.086 83.0703 842.711 83.0703C845.477 83.0703 848.211 82.4922 850.914 81.3359V84.8047C849.539 85.3984 848.234 85.8203 847 86.0703C845.781 86.3359 844.305 86.4688 842.57 86.4688ZM841.516 63.1016C839.453 63.1016 837.805 63.7734 836.57 65.1172C835.352 66.4609 834.633 68.3203 834.414 70.6953H847.844C847.844 68.2422 847.297 66.3672 846.203 65.0703C845.109 63.7578 843.547 63.1016 841.516 63.1016ZM862.562 86H858.672V49.5312H862.562V86ZM874.703 86H870.812V49.5312H874.703V86ZM905.125 73.1328C905.125 77.3203 904.07 80.5938 901.961 82.9531C899.852 85.2969 896.938 86.4688 893.219 86.4688C890.922 86.4688 888.883 85.9297 887.102 84.8516C885.32 83.7734 883.945 82.2266 882.977 80.2109C882.008 78.1953 881.523 75.8359 881.523 73.1328C881.523 68.9453 882.57 65.6875 884.664 63.3594C886.758 61.0156 889.664 59.8438 893.383 59.8438C896.977 59.8438 899.828 61.0391 901.938 63.4297C904.062 65.8203 905.125 69.0547 905.125 73.1328ZM885.555 73.1328C885.555 76.4141 886.211 78.9141 887.523 80.6328C888.836 82.3516 890.766 83.2109 893.312 83.2109C895.859 83.2109 897.789 82.3594 899.102 80.6562C900.43 78.9375 901.094 76.4297 901.094 73.1328C901.094 69.8672 900.43 67.3906 899.102 65.7031C897.789 64 895.844 63.1484 893.266 63.1484C890.719 63.1484 888.797 63.9844 887.5 65.6562C886.203 67.3281 885.555 69.8203 885.555 73.1328ZM817.305 151H813.367L806.453 128.055C806.125 127.039 805.758 125.758 805.352 124.211C804.945 122.664 804.734 121.734 804.719 121.422C804.375 123.484 803.828 125.742 803.078 128.195L796.375 151H792.438L783.32 116.734H787.539L792.953 137.898C793.703 140.867 794.25 143.555 794.594 145.961C795.016 143.102 795.641 140.305 796.469 137.57L802.609 116.734H806.828L813.273 137.758C814.023 140.18 814.656 142.914 815.172 145.961C815.469 143.742 816.031 141.039 816.859 137.852L822.25 116.734H826.469L817.305 151ZM853.422 138.133C853.422 142.32 852.367 145.594 850.258 147.953C848.148 150.297 845.234 151.469 841.516 151.469C839.219 151.469 837.18 150.93 835.398 149.852C833.617 148.773 832.242 147.227 831.273 145.211C830.305 143.195 829.82 140.836 829.82 138.133C829.82 133.945 830.867 130.688 832.961 128.359C835.055 126.016 837.961 124.844 841.68 124.844C845.273 124.844 848.125 126.039 850.234 128.43C852.359 130.82 853.422 134.055 853.422 138.133ZM833.852 138.133C833.852 141.414 834.508 143.914 835.82 145.633C837.133 147.352 839.062 148.211 841.609 148.211C844.156 148.211 846.086 147.359 847.398 145.656C848.727 143.938 849.391 141.43 849.391 138.133C849.391 134.867 848.727 132.391 847.398 130.703C846.086 129 844.141 128.148 841.562 128.148C839.016 128.148 837.094 128.984 835.797 130.656C834.5 132.328 833.852 134.82 833.852 138.133ZM871.984 124.844C873.125 124.844 874.148 124.938 875.055 125.125L874.516 128.734C873.453 128.5 872.516 128.383 871.703 128.383C869.625 128.383 867.844 129.227 866.359 130.914C864.891 132.602 864.156 134.703 864.156 137.219V151H860.266V125.312H863.477L863.922 130.07H864.109C865.062 128.398 866.211 127.109 867.555 126.203C868.898 125.297 870.375 124.844 871.984 124.844ZM883.75 151H879.859V114.531H883.75V151ZM909.484 147.555H909.273C907.477 150.164 904.789 151.469 901.211 151.469C897.852 151.469 895.234 150.32 893.359 148.023C891.5 145.727 890.57 142.461 890.57 138.227C890.57 133.992 891.508 130.703 893.383 128.359C895.258 126.016 897.867 124.844 901.211 124.844C904.695 124.844 907.367 126.109 909.227 128.641H909.531L909.367 126.789L909.273 124.984V114.531H913.164V151H910L909.484 147.555ZM901.703 148.211C904.359 148.211 906.281 147.492 907.469 146.055C908.672 144.602 909.273 142.266 909.273 139.047V138.227C909.273 134.586 908.664 131.992 907.445 130.445C906.242 128.883 904.312 128.102 901.656 128.102C899.375 128.102 897.625 128.992 896.406 130.773C895.203 132.539 894.602 135.039 894.602 138.273C894.602 141.555 895.203 144.031 896.406 145.703C897.609 147.375 899.375 148.211 901.703 148.211Z" fill="black"/>
</g>
<g id="logo-light">
<rect width="200" height="200" transform="translate(500)" fill="black" fill-opacity="0.6"/>
<rect id="Background_4" x="501" y="1" width="198" height="198" stroke="white" stroke-width="2"/>
<path id="Text_4" d="M572.883 86H568.898V69.875H550.852V86H546.867V51.7344H550.852V66.3125H568.898V51.7344H572.883V86ZM592.57 86.4688C588.773 86.4688 585.773 85.3125 583.57 83C581.383 80.6875 580.289 77.4766 580.289 73.3672C580.289 69.2266 581.305 65.9375 583.336 63.5C585.383 61.0625 588.125 59.8438 591.562 59.8438C594.781 59.8438 597.328 60.9062 599.203 63.0312C601.078 65.1406 602.016 67.9297 602.016 71.3984V73.8594H584.32C584.398 76.875 585.156 79.1641 586.594 80.7266C588.047 82.2891 590.086 83.0703 592.711 83.0703C595.477 83.0703 598.211 82.4922 600.914 81.3359V84.8047C599.539 85.3984 598.234 85.8203 597 86.0703C595.781 86.3359 594.305 86.4688 592.57 86.4688ZM591.516 63.1016C589.453 63.1016 587.805 63.7734 586.57 65.1172C585.352 66.4609 584.633 68.3203 584.414 70.6953H597.844C597.844 68.2422 597.297 66.3672 596.203 65.0703C595.109 63.7578 593.547 63.1016 591.516 63.1016ZM612.562 86H608.672V49.5312H612.562V86ZM624.703 86H620.812V49.5312H624.703V86ZM655.125 73.1328C655.125 77.3203 654.07 80.5938 651.961 82.9531C649.852 85.2969 646.938 86.4688 643.219 86.4688C640.922 86.4688 638.883 85.9297 637.102 84.8516C635.32 83.7734 633.945 82.2266 632.977 80.2109C632.008 78.1953 631.523 75.8359 631.523 73.1328C631.523 68.9453 632.57 65.6875 634.664 63.3594C636.758 61.0156 639.664 59.8438 643.383 59.8438C646.977 59.8438 649.828 61.0391 651.938 63.4297C654.062 65.8203 655.125 69.0547 655.125 73.1328ZM635.555 73.1328C635.555 76.4141 636.211 78.9141 637.523 80.6328C638.836 82.3516 640.766 83.2109 643.312 83.2109C645.859 83.2109 647.789 82.3594 649.102 80.6562C650.43 78.9375 651.094 76.4297 651.094 73.1328C651.094 69.8672 650.43 67.3906 649.102 65.7031C647.789 64 645.844 63.1484 643.266 63.1484C640.719 63.1484 638.797 63.9844 637.5 65.6562C636.203 67.3281 635.555 69.8203 635.555 73.1328ZM567.305 151H563.367L556.453 128.055C556.125 127.039 555.758 125.758 555.352 124.211C554.945 122.664 554.734 121.734 554.719 121.422C554.375 123.484 553.828 125.742 553.078 128.195L546.375 151H542.438L533.32 116.734H537.539L542.953 137.898C543.703 140.867 544.25 143.555 544.594 145.961C545.016 143.102 545.641 140.305 546.469 137.57L552.609 116.734H556.828L563.273 137.758C564.023 140.18 564.656 142.914 565.172 145.961C565.469 143.742 566.031 141.039 566.859 137.852L572.25 116.734H576.469L567.305 151ZM603.422 138.133C603.422 142.32 602.367 145.594 600.258 147.953C598.148 150.297 595.234 151.469 591.516 151.469C589.219 151.469 587.18 150.93 585.398 149.852C583.617 148.773 582.242 147.227 581.273 145.211C580.305 143.195 579.82 140.836 579.82 138.133C579.82 133.945 580.867 130.688 582.961 128.359C585.055 126.016 587.961 124.844 591.68 124.844C595.273 124.844 598.125 126.039 600.234 128.43C602.359 130.82 603.422 134.055 603.422 138.133ZM583.852 138.133C583.852 141.414 584.508 143.914 585.82 145.633C587.133 147.352 589.062 148.211 591.609 148.211C594.156 148.211 596.086 147.359 597.398 145.656C598.727 143.938 599.391 141.43 599.391 138.133C599.391 134.867 598.727 132.391 597.398 130.703C596.086 129 594.141 128.148 591.562 128.148C589.016 128.148 587.094 128.984 585.797 130.656C584.5 132.328 583.852 134.82 583.852 138.133ZM621.984 124.844C623.125 124.844 624.148 124.938 625.055 125.125L624.516 128.734C623.453 128.5 622.516 128.383 621.703 128.383C619.625 128.383 617.844 129.227 616.359 130.914C614.891 132.602 614.156 134.703 614.156 137.219V151H610.266V125.312H613.477L613.922 130.07H614.109C615.062 128.398 616.211 127.109 617.555 126.203C618.898 125.297 620.375 124.844 621.984 124.844ZM633.75 151H629.859V114.531H633.75V151ZM659.484 147.555H659.273C657.477 150.164 654.789 151.469 651.211 151.469C647.852 151.469 645.234 150.32 643.359 148.023C641.5 145.727 640.57 142.461 640.57 138.227C640.57 133.992 641.508 130.703 643.383 128.359C645.258 126.016 647.867 124.844 651.211 124.844C654.695 124.844 657.367 126.109 659.227 128.641H659.531L659.367 126.789L659.273 124.984V114.531H663.164V151H660L659.484 147.555ZM651.703 148.211C654.359 148.211 656.281 147.492 657.469 146.055C658.672 144.602 659.273 142.266 659.273 139.047V138.227C659.273 134.586 658.664 131.992 657.445 130.445C656.242 128.883 654.312 128.102 651.656 128.102C649.375 128.102 647.625 128.992 646.406 130.773C645.203 132.539 644.602 135.039 644.602 138.273C644.602 141.555 645.203 144.031 646.406 145.703C647.609 147.375 649.375 148.211 651.703 148.211Z" fill="white"/>
</g>
<g id="logo-opaque">
<rect id="Background_5" x="251" y="1" width="198" height="198" fill="white" stroke="#607D8B" stroke-width="2"/>
<path id="Text_5" d="M322.883 86H318.898V69.875H300.852V86H296.867V51.7344H300.852V66.3125H318.898V51.7344H322.883V86ZM342.57 86.4688C338.773 86.4688 335.773 85.3125 333.57 83C331.383 80.6875 330.289 77.4766 330.289 73.3672C330.289 69.2266 331.305 65.9375 333.336 63.5C335.383 61.0625 338.125 59.8438 341.562 59.8438C344.781 59.8438 347.328 60.9062 349.203 63.0312C351.078 65.1406 352.016 67.9297 352.016 71.3984V73.8594H334.32C334.398 76.875 335.156 79.1641 336.594 80.7266C338.047 82.2891 340.086 83.0703 342.711 83.0703C345.477 83.0703 348.211 82.4922 350.914 81.3359V84.8047C349.539 85.3984 348.234 85.8203 347 86.0703C345.781 86.3359 344.305 86.4688 342.57 86.4688ZM341.516 63.1016C339.453 63.1016 337.805 63.7734 336.57 65.1172C335.352 66.4609 334.633 68.3203 334.414 70.6953H347.844C347.844 68.2422 347.297 66.3672 346.203 65.0703C345.109 63.7578 343.547 63.1016 341.516 63.1016ZM362.562 86H358.672V49.5312H362.562V86ZM374.703 86H370.812V49.5312H374.703V86ZM405.125 73.1328C405.125 77.3203 404.07 80.5938 401.961 82.9531C399.852 85.2969 396.938 86.4688 393.219 86.4688C390.922 86.4688 388.883 85.9297 387.102 84.8516C385.32 83.7734 383.945 82.2266 382.977 80.2109C382.008 78.1953 381.523 75.8359 381.523 73.1328C381.523 68.9453 382.57 65.6875 384.664 63.3594C386.758 61.0156 389.664 59.8438 393.383 59.8438C396.977 59.8438 399.828 61.0391 401.938 63.4297C404.062 65.8203 405.125 69.0547 405.125 73.1328ZM385.555 73.1328C385.555 76.4141 386.211 78.9141 387.523 80.6328C388.836 82.3516 390.766 83.2109 393.312 83.2109C395.859 83.2109 397.789 82.3594 399.102 80.6562C400.43 78.9375 401.094 76.4297 401.094 73.1328C401.094 69.8672 400.43 67.3906 399.102 65.7031C397.789 64 395.844 63.1484 393.266 63.1484C390.719 63.1484 388.797 63.9844 387.5 65.6562C386.203 67.3281 385.555 69.8203 385.555 73.1328ZM317.305 151H313.367L306.453 128.055C306.125 127.039 305.758 125.758 305.352 124.211C304.945 122.664 304.734 121.734 304.719 121.422C304.375 123.484 303.828 125.742 303.078 128.195L296.375 151H292.438L283.32 116.734H287.539L292.953 137.898C293.703 140.867 294.25 143.555 294.594 145.961C295.016 143.102 295.641 140.305 296.469 137.57L302.609 116.734H306.828L313.273 137.758C314.023 140.18 314.656 142.914 315.172 145.961C315.469 143.742 316.031 141.039 316.859 137.852L322.25 116.734H326.469L317.305 151ZM353.422 138.133C353.422 142.32 352.367 145.594 350.258 147.953C348.148 150.297 345.234 151.469 341.516 151.469C339.219 151.469 337.18 150.93 335.398 149.852C333.617 148.773 332.242 147.227 331.273 145.211C330.305 143.195 329.82 140.836 329.82 138.133C329.82 133.945 330.867 130.688 332.961 128.359C335.055 126.016 337.961 124.844 341.68 124.844C345.273 124.844 348.125 126.039 350.234 128.43C352.359 130.82 353.422 134.055 353.422 138.133ZM333.852 138.133C333.852 141.414 334.508 143.914 335.82 145.633C337.133 147.352 339.062 148.211 341.609 148.211C344.156 148.211 346.086 147.359 347.398 145.656C348.727 143.938 349.391 141.43 349.391 138.133C349.391 134.867 348.727 132.391 347.398 130.703C346.086 129 344.141 128.148 341.562 128.148C339.016 128.148 337.094 128.984 335.797 130.656C334.5 132.328 333.852 134.82 333.852 138.133ZM371.984 124.844C373.125 124.844 374.148 124.938 375.055 125.125L374.516 128.734C373.453 128.5 372.516 128.383 371.703 128.383C369.625 128.383 367.844 129.227 366.359 130.914C364.891 132.602 364.156 134.703 364.156 137.219V151H360.266V125.312H363.477L363.922 130.07H364.109C365.062 128.398 366.211 127.109 367.555 126.203C368.898 125.297 370.375 124.844 371.984 124.844ZM383.75 151H379.859V114.531H383.75V151ZM409.484 147.555H409.273C407.477 150.164 404.789 151.469 401.211 151.469C397.852 151.469 395.234 150.32 393.359 148.023C391.5 145.727 390.57 142.461 390.57 138.227C390.57 133.992 391.508 130.703 393.383 128.359C395.258 126.016 397.867 124.844 401.211 124.844C404.695 124.844 407.367 126.109 409.227 128.641H409.531L409.367 126.789L409.273 124.984V114.531H413.164V151H410L409.484 147.555ZM401.703 148.211C404.359 148.211 406.281 147.492 407.469 146.055C408.672 144.602 409.273 142.266 409.273 139.047V138.227C409.273 134.586 408.664 131.992 407.445 130.445C406.242 128.883 404.312 128.102 401.656 128.102C399.375 128.102 397.625 128.992 396.406 130.773C395.203 132.539 394.602 135.039 394.602 138.273C394.602 141.555 395.203 144.031 396.406 145.703C397.609 147.375 399.375 148.211 401.703 148.211Z" fill="#607D8B"/>
</g>
<g id="logo">
<rect id="Background_6" x="1" y="1" width="198" height="198" stroke="#607D8B" stroke-width="2"/>
<path id="Text_6" d="M72.8828 86H68.8984V69.875H50.8516V86H46.8672V51.7344H50.8516V66.3125H68.8984V51.7344H72.8828V86ZM92.5703 86.4688C88.7734 86.4688 85.7734 85.3125 83.5703 83C81.3828 80.6875 80.2891 77.4766 80.2891 73.3672C80.2891 69.2266 81.3047 65.9375 83.3359 63.5C85.3828 61.0625 88.125 59.8438 91.5625 59.8438C94.7812 59.8438 97.3281 60.9062 99.2031 63.0312C101.078 65.1406 102.016 67.9297 102.016 71.3984V73.8594H84.3203C84.3984 76.875 85.1562 79.1641 86.5938 80.7266C88.0469 82.2891 90.0859 83.0703 92.7109 83.0703C95.4766 83.0703 98.2109 82.4922 100.914 81.3359V84.8047C99.5391 85.3984 98.2344 85.8203 97 86.0703C95.7812 86.3359 94.3047 86.4688 92.5703 86.4688ZM91.5156 63.1016C89.4531 63.1016 87.8047 63.7734 86.5703 65.1172C85.3516 66.4609 84.6328 68.3203 84.4141 70.6953H97.8438C97.8438 68.2422 97.2969 66.3672 96.2031 65.0703C95.1094 63.7578 93.5469 63.1016 91.5156 63.1016ZM112.562 86H108.672V49.5312H112.562V86ZM124.703 86H120.812V49.5312H124.703V86ZM155.125 73.1328C155.125 77.3203 154.07 80.5938 151.961 82.9531C149.852 85.2969 146.938 86.4688 143.219 86.4688C140.922 86.4688 138.883 85.9297 137.102 84.8516C135.32 83.7734 133.945 82.2266 132.977 80.2109C132.008 78.1953 131.523 75.8359 131.523 73.1328C131.523 68.9453 132.57 65.6875 134.664 63.3594C136.758 61.0156 139.664 59.8438 143.383 59.8438C146.977 59.8438 149.828 61.0391 151.938 63.4297C154.062 65.8203 155.125 69.0547 155.125 73.1328ZM135.555 73.1328C135.555 76.4141 136.211 78.9141 137.523 80.6328C138.836 82.3516 140.766 83.2109 143.312 83.2109C145.859 83.2109 147.789 82.3594 149.102 80.6562C150.43 78.9375 151.094 76.4297 151.094 73.1328C151.094 69.8672 150.43 67.3906 149.102 65.7031C147.789 64 145.844 63.1484 143.266 63.1484C140.719 63.1484 138.797 63.9844 137.5 65.6562C136.203 67.3281 135.555 69.8203 135.555 73.1328ZM67.3047 151H63.3672L56.4531 128.055C56.125 127.039 55.7578 125.758 55.3516 124.211C54.9453 122.664 54.7344 121.734 54.7188 121.422C54.375 123.484 53.8281 125.742 53.0781 128.195L46.375 151H42.4375L33.3203 116.734H37.5391L42.9531 137.898C43.7031 140.867 44.25 143.555 44.5938 145.961C45.0156 143.102 45.6406 140.305 46.4688 137.57L52.6094 116.734H56.8281L63.2734 137.758C64.0234 140.18 64.6562 142.914 65.1719 145.961C65.4688 143.742 66.0312 141.039 66.8594 137.852L72.25 116.734H76.4688L67.3047 151ZM103.422 138.133C103.422 142.32 102.367 145.594 100.258 147.953C98.1484 150.297 95.2344 151.469 91.5156 151.469C89.2188 151.469 87.1797 150.93 85.3984 149.852C83.6172 148.773 82.2422 147.227 81.2734 145.211C80.3047 143.195 79.8203 140.836 79.8203 138.133C79.8203 133.945 80.8672 130.688 82.9609 128.359C85.0547 126.016 87.9609 124.844 91.6797 124.844C95.2734 124.844 98.125 126.039 100.234 128.43C102.359 130.82 103.422 134.055 103.422 138.133ZM83.8516 138.133C83.8516 141.414 84.5078 143.914 85.8203 145.633C87.1328 147.352 89.0625 148.211 91.6094 148.211C94.1562 148.211 96.0859 147.359 97.3984 145.656C98.7266 143.938 99.3906 141.43 99.3906 138.133C99.3906 134.867 98.7266 132.391 97.3984 130.703C96.0859 129 94.1406 128.148 91.5625 128.148C89.0156 128.148 87.0938 128.984 85.7969 130.656C84.5 132.328 83.8516 134.82 83.8516 138.133ZM121.984 124.844C123.125 124.844 124.148 124.938 125.055 125.125L124.516 128.734C123.453 128.5 122.516 128.383 121.703 128.383C119.625 128.383 117.844 129.227 116.359 130.914C114.891 132.602 114.156 134.703 114.156 137.219V151H110.266V125.312H113.477L113.922 130.07H114.109C115.062 128.398 116.211 127.109 117.555 126.203C118.898 125.297 120.375 124.844 121.984 124.844ZM133.75 151H129.859V114.531H133.75V151ZM159.484 147.555H159.273C157.477 150.164 154.789 151.469 151.211 151.469C147.852 151.469 145.234 150.32 143.359 148.023C141.5 145.727 140.57 142.461 140.57 138.227C140.57 133.992 141.508 130.703 143.383 128.359C145.258 126.016 147.867 124.844 151.211 124.844C154.695 124.844 157.367 126.109 159.227 128.641H159.531L159.367 126.789L159.273 124.984V114.531H163.164V151H160L159.484 147.555ZM151.703 148.211C154.359 148.211 156.281 147.492 157.469 146.055C158.672 144.602 159.273 142.266 159.273 139.047V138.227C159.273 134.586 158.664 131.992 157.445 130.445C156.242 128.883 154.312 128.102 151.656 128.102C149.375 128.102 147.625 128.992 146.406 130.773C145.203 132.539 144.602 135.039 144.602 138.273C144.602 141.555 145.203 144.031 146.406 145.703C147.609 147.375 149.375 148.211 151.703 148.211Z" fill="#607D8B"/>
</g>
</g>
</svg>
